<?xml version="1.0" encoding="UTF-8"?>
<svg id="Camada_1" xmlns="http://www.w3.org/2000/svg" version="1.1" viewBox="0 0 229.93 150.77">
  <!-- Generator: Adobe Illustrator 30.2.1, SVG Export Plug-In . SVG Version: 2.1.1 Build 1)  -->
  <defs>
    <style>
      .st0, .st1, .st2 {
        fill-rule: evenodd;
      }

      .st0, .st3 {
        fill: #bb0f56;
      }

      .st1, .st4 {
        fill: #010415;
      }

      .st5 {
        fill: #fff;
      }

      .st6, .st2 {
        fill: #e63483;
      }

      .st7 {
        fill: #f6b04e;
      }

      .st8 {
        fill: #0b1542;
      }

      .st9 {
        fill: #090f2b;
        opacity: .36;
      }

      .st10 {
        fill: #717bb2;
      }
    </style>
  </defs>
  <rect class="st9" x="23.84" y="101.31" width="182.25" height="29" rx="5.47" ry="5.47"/>
  <g>
    <path class="st4" d="M26.7,70.38h10.41c1.58,0,2.86,1.28,2.86,2.86v34.61c0,1.58-1.28,2.86-2.86,2.86h-10.41c-1.58,0-2.86-1.28-2.86-2.86v-34.61c0-1.58,1.28-2.86,2.86-2.86Z"/>
    <path class="st8" d="M38.02,58.04h153.9c5.41,0,9.8,4.39,9.8,9.8v35.68c0,5.41-4.39,9.8-9.8,9.8H38.02c-5.41,0-9.8-4.39-9.8-9.8v-35.68c0-5.41,4.39-9.8,9.8-9.8Z"/>
    <path class="st4" d="M192.82,70.38h10.41c1.58,0,2.86,1.28,2.86,2.86v34.61c0,1.58-1.28,2.86-2.86,2.86h-10.41c-1.58,0-2.86-1.28-2.86-2.86v-34.61c0-1.58,1.28-2.86,2.86-2.86Z"/>
    <path class="st2" d="M114.97,20.46h5.27c1.88,0,2.95.52,3.91,1.91.95,1.39,2.63,3.73,2.63,3.73h-23.61s1.68-2.34,2.63-3.73c.96-1.39,2.02-1.91,3.91-1.91h5.27Z"/>
    <path class="st0" d="M114.97,22.68h30.58c10.92,0,17.14,3.02,22.69,11.09,5.55,8.07,15.29,21.68,15.29,21.68H46.4s9.75-13.61,15.29-21.68c5.54-8.07,11.76-11.09,22.69-11.09h30.58Z"/>
    <path class="st1" d="M66.38,50.99h97.17c5.64,0,9-3.51,5.9-7.88-1.85-2.59-3.65-5.22-5.45-7.84-5.06-7.36-10.42-9.31-19.25-9.31h-59.55c-8.83,0-14.19,1.94-19.25,9.31-1.8,2.62-3.61,5.25-5.45,7.84-3.11,4.36.25,7.88,5.89,7.88Z"/>
    <path class="st6" d="M37.71,54.78h154.51c5.24,0,9.5,4.26,9.5,9.5v34.57c0,5.24-4.26,9.5-9.5,9.5H37.71c-5.24,0-9.5-4.26-9.5-9.5v-34.57c0-5.24,4.26-9.5,9.5-9.5Z"/>
    <path class="st4" d="M35.61,59.82h158.72c2.41,0,4.37,1.96,4.37,4.37v15.92c0,2.41-1.96,4.37-4.37,4.37H35.61c-2.41,0-4.37-1.96-4.37-4.37v-15.92c0-2.41,1.96-4.37,4.37-4.37Z"/>
    <path class="st6" d="M160.46,102.47h35.31c2.12,0,3.84,1.72,3.84,3.84v7.03c0,2.12-1.72,3.84-3.84,3.84h-35.32c-2.12,0-3.84-1.72-3.84-3.84v-7.02c0-2.12,1.72-3.84,3.84-3.84Z"/>
    <path class="st6" d="M94.3,103.46h41.34c1.83,0,3.32,1.49,3.32,3.32v6.08c0,1.83-1.49,3.32-3.32,3.32h-41.34c-1.83,0-3.32-1.49-3.32-3.32v-6.08c0-1.83,1.49-3.32,3.32-3.32Z"/>
    <path class="st10" d="M160.63,63.54h3.66c.67,0,1.22.55,1.22,1.22v6.18c0,.67-.55,1.22-1.22,1.22h-3.65c-.67,0-1.22-.55-1.22-1.22v-6.17c0-.67.55-1.22,1.22-1.22Z"/>
    <path class="st7" d="M77.83,63.54h74.28c.95,0,1.72.77,1.72,1.72v5.17c0,.95-.77,1.72-1.72,1.72h-74.28c-.95,0-1.72-.77-1.72-1.72v-5.17c0-.95.77-1.72,1.72-1.72Z"/>
    <path class="st10" d="M190.71,32.74h0c1.48,0,2.69,1.2,2.69,2.69v10.67c0,1.48-1.2,2.69-2.69,2.69h0c-1.48,0-2.69-1.2-2.69-2.69v-10.67c0-1.48,1.2-2.69,2.69-2.69Z"/>
    <path class="st10" d="M41.28,35.59h147.38c1.69,0,3.07,1.37,3.07,3.07h0c0,1.7-1.37,3.08-3.07,3.08H41.28c-1.69,0-3.07-1.38-3.07-3.07h0c0-1.7,1.37-3.07,3.07-3.07Z"/>
    <rect class="st10" x="36.53" y="32.74" width="5.38" height="16.05" rx="2.69" ry="2.69"/>
    <path class="st10" d="M39.08,43.74h151.77c.48,0,.87.39.87.87h0c0,.48-.39.87-.87.87H39.08c-.48,0-.87-.39-.87-.87h0c0-.48.39-.87.87-.87Z"/>
    <g>
      <rect class="st10" x="59.6" y="44.62" width="2.69" height="10.16"/>
      <rect class="st10" x="167.65" y="44.62" width="2.69" height="10.16"/>
    </g>
    <g>
      <path class="st5" d="M186.01,63.54h7.31c1.34,0,2.44,1.09,2.44,2.44v12.35c0,1.34-1.09,2.44-2.44,2.44h-7.31c-1.35,0-2.44-1.09-2.44-2.44v-12.35c0-1.34,1.09-2.44,2.44-2.44Z"/>
      <path class="st3" d="M186.01,64.48h7.31c.83,0,1.5.67,1.5,1.5v12.35c0,.83-.67,1.5-1.5,1.5h-7.31c-.83,0-1.5-.67-1.5-1.5v-12.35c0-.83.67-1.5,1.5-1.5Z"/>
      <path class="st6" d="M187.23,66.35h4.86c.31,0,.56.25.56.56v4.11c0,.31-.25.56-.56.56h-4.87c-.31,0-.56-.25-.56-.56v-4.11c0-.31.25-.56.56-.56Z"/>
      <path class="st6" d="M187.23,72.74h4.86c.31,0,.56.25.56.56v4.11c0,.31-.25.56-.56.56h-4.87c-.31,0-.56-.25-.56-.56v-4.11c0-.31.25-.56.56-.56Z"/>
      <path class="st5" d="M187.43,66.99h1.71c.11,0,.2.09.2.2v1.44c0,.11-.09.19-.19.19h-1.71c-.11,0-.19-.09-.19-.19v-1.44c0-.11.09-.2.2-.2Z"/>
      <path class="st5" d="M189.92,67.72h1.02c.06,0,.12.05.12.12v.87c0,.06-.05.12-.12.12h-1.02c-.06,0-.12-.05-.12-.12v-.86c0-.06.05-.12.12-.12Z"/>
      <rect class="st5" x="189.04" y="69.19" width=".86" height=".75" rx=".08" ry=".08"/>
      <path class="st5" d="M187.43,73.57h1.71c.11,0,.2.09.2.2v1.44c0,.11-.09.19-.19.19h-1.71c-.11,0-.19-.09-.19-.19v-1.44c0-.11.09-.2.2-.2Z"/>
      <path class="st5" d="M189.92,74.3h1.02c.06,0,.12.05.12.12v.87c0,.06-.05.12-.12.12h-1.02c-.06,0-.12-.05-.12-.12v-.86c0-.06.05-.12.12-.12Z"/>
      <rect class="st5" x="189.04" y="75.77" width=".86" height=".75" rx=".08" ry=".08"/>
    </g>
    <g>
      <rect class="st5" x="168.45" y="63.54" width="12.18" height="17.22" rx="2.44" ry="2.44"/>
      <path class="st3" d="M170.89,64.48h7.31c.83,0,1.5.67,1.5,1.5v12.35c0,.83-.67,1.5-1.5,1.5h-7.31c-.83,0-1.5-.67-1.5-1.5v-12.35c0-.83.67-1.5,1.5-1.5Z"/>
      <path class="st6" d="M172.11,66.35h4.86c.31,0,.56.25.56.56v4.11c0,.31-.25.56-.56.56h-4.87c-.31,0-.56-.25-.56-.56v-4.11c0-.31.25-.56.56-.56Z"/>
      <path class="st6" d="M172.11,72.74h4.86c.31,0,.56.25.56.56v4.11c0,.31-.25.56-.56.56h-4.87c-.31,0-.56-.25-.56-.56v-4.11c0-.31.25-.56.56-.56Z"/>
      <rect class="st5" x="172.11" y="66.99" width="2.1" height="1.83" rx=".2" ry=".2"/>
      <rect class="st5" x="174.67" y="67.72" width="1.26" height="1.1" rx=".12" ry=".12"/>
      <path class="st5" d="M174,69.19h.7s.08.04.08.08v.59s-.04.08-.08.08h-.7s-.08-.04-.08-.08v-.59s.04-.08.08-.08Z"/>
      <path class="st5" d="M172.31,73.57h1.71c.11,0,.19.09.19.19v1.44c0,.11-.09.19-.19.19h-1.71c-.11,0-.19-.09-.19-.19v-1.44c0-.11.09-.2.2-.2Z"/>
      <path class="st5" d="M174.79,74.3h1.02c.06,0,.12.05.12.12v.87c0,.06-.05.12-.12.12h-1.02c-.06,0-.12-.05-.12-.12v-.86c0-.06.05-.12.12-.12Z"/>
      <path class="st5" d="M174,75.77h.7s.08.04.08.08v.59s-.04.08-.08.08h-.7s-.08-.04-.08-.08v-.59s.04-.08.08-.08Z"/>
    </g>
    <path class="st4" d="M177.6,108.93h15.33c.92,0,1.67.75,1.67,1.67v3.05c0,.92-.75,1.67-1.67,1.67h-15.33c-.92,0-1.67-.75-1.67-1.67v-3.05c0-.92.75-1.67,1.67-1.67Z"/>
    <path class="st4" d="M163.75,108.93h4.97c.92,0,1.67.75,1.67,1.67v3.05c0,.92-.75,1.67-1.67,1.67h-4.97c-.92,0-1.67-.75-1.67-1.67v-3.05c0-.92.75-1.67,1.67-1.67Z"/>
    <path class="st3" d="M37.89,98.71h154.15c.51,0,.92.41.92.92v3.34c0,.51-.41.92-.92.92H37.89c-.51,0-.92-.41-.92-.92v-3.34c0-.51.41-.92.92-.92Z"/>
    <path class="st3" d="M38.46,87.62h153.01c.82,0,1.49.67,1.49,1.49v5.42c0,.82-.67,1.49-1.49,1.49H38.46c-.82,0-1.49-.67-1.49-1.49v-5.42c0-.82.67-1.49,1.49-1.49Z"/>
    <path class="st6" d="M34.15,102.47h35.32c2.12,0,3.84,1.72,3.84,3.84v7.03c0,2.12-1.72,3.84-3.84,3.84h-35.32c-2.12,0-3.84-1.72-3.84-3.84v-7.02c0-2.12,1.72-3.84,3.84-3.84Z"/>
    <rect class="st10" x="64.43" y="63.54" width="6.09" height="8.61" rx="1.22" ry="1.22"/>
    <g>
      <path class="st5" d="M51.74,63.54h7.31c1.34,0,2.44,1.09,2.44,2.44v12.35c0,1.34-1.09,2.44-2.44,2.44h-7.31c-1.34,0-2.44-1.09-2.44-2.44v-12.35c0-1.34,1.09-2.44,2.44-2.44Z"/>
      <path class="st3" d="M51.74,64.48h7.31c.83,0,1.5.67,1.5,1.5v12.35c0,.83-.67,1.5-1.5,1.5h-7.31c-.83,0-1.5-.67-1.5-1.5v-12.35c0-.83.67-1.5,1.5-1.5Z"/>
      <path class="st6" d="M52.96,66.35h4.86c.31,0,.56.25.56.56v4.11c0,.31-.25.56-.56.56h-4.87c-.31,0-.56-.25-.56-.56v-4.11c0-.31.25-.56.56-.56Z"/>
      <path class="st6" d="M52.96,72.74h4.86c.31,0,.56.25.56.56v4.11c0,.31-.25.56-.56.56h-4.87c-.31,0-.56-.25-.56-.56v-4.11c0-.31.25-.56.56-.56Z"/>
      <rect class="st5" x="52.96" y="66.99" width="2.1" height="1.83" rx=".2" ry=".2"/>
      <rect class="st5" x="55.53" y="67.72" width="1.26" height="1.1" rx=".12" ry=".12"/>
      <path class="st5" d="M54.85,69.19h.7s.08.04.08.08v.59s-.04.08-.08.08h-.7s-.08-.04-.08-.08v-.59s.04-.08.08-.08Z"/>
      <path class="st5" d="M53.16,73.57h1.71c.11,0,.2.09.2.2v1.44c0,.11-.09.19-.19.19h-1.71c-.11,0-.2-.09-.2-.2v-1.44c0-.11.09-.2.2-.2Z"/>
      <path class="st5" d="M55.65,74.3h1.02c.06,0,.12.05.12.12v.86c0,.06-.05.12-.12.12h-1.02c-.06,0-.12-.05-.12-.12v-.86c0-.06.05-.12.12-.12Z"/>
      <path class="st5" d="M54.85,75.77h.7s.08.04.08.08v.59s-.04.08-.08.08h-.7s-.08-.04-.08-.08v-.59s.04-.08.08-.08Z"/>
    </g>
    <g>
      <path class="st5" d="M36.61,63.54h7.31c1.34,0,2.44,1.09,2.44,2.44v12.35c0,1.34-1.09,2.44-2.44,2.44h-7.31c-1.34,0-2.44-1.09-2.44-2.44v-12.35c0-1.34,1.09-2.44,2.44-2.44Z"/>
      <path class="st3" d="M36.61,64.48h7.31c.83,0,1.5.67,1.5,1.5v12.35c0,.83-.67,1.5-1.5,1.5h-7.31c-.83,0-1.5-.67-1.5-1.5v-12.35c0-.83.67-1.5,1.5-1.5Z"/>
      <path class="st6" d="M37.84,66.35h4.86c.31,0,.56.25.56.56v4.11c0,.31-.25.56-.56.56h-4.87c-.31,0-.56-.25-.56-.56v-4.11c0-.31.25-.56.56-.56Z"/>
      <path class="st6" d="M37.84,72.74h4.86c.31,0,.56.25.56.56v4.11c0,.31-.25.56-.56.56h-4.87c-.31,0-.56-.25-.56-.56v-4.11c0-.31.25-.56.56-.56Z"/>
      <rect class="st5" x="37.84" y="66.99" width="2.1" height="1.83" rx=".2" ry=".2"/>
      <rect class="st5" x="40.4" y="67.72" width="1.26" height="1.1" rx=".12" ry=".12"/>
      <rect class="st5" x="39.65" y="69.19" width=".86" height=".75" rx=".08" ry=".08"/>
      <rect class="st5" x="37.84" y="73.57" width="2.1" height="1.83" rx=".2" ry=".2"/>
      <path class="st5" d="M40.52,74.3h1.02c.06,0,.12.05.12.12v.86c0,.06-.05.12-.12.12h-1.02c-.06,0-.12-.05-.12-.12v-.86c0-.06.05-.12.12-.12Z"/>
      <rect class="st5" x="39.65" y="75.77" width=".86" height=".75" rx=".08" ry=".08"/>
    </g>
    <rect class="st4" x="35.34" y="108.93" width="18.67" height="6.38" rx="1.67" ry="1.67"/>
    <path class="st4" d="M61.21,108.93h4.97c.92,0,1.67.75,1.67,1.67v3.05c0,.92-.75,1.67-1.67,1.67h-4.97c-.92,0-1.67-.75-1.67-1.67v-3.05c0-.92.75-1.67,1.67-1.67Z"/>
  </g>
</svg>