<?xml version="1.0" encoding="UTF-8"?>
<svg id="Camada_1" xmlns="http://www.w3.org/2000/svg" version="1.1" viewBox="0 0 1059.41 540.57">
  <!-- Generator: Adobe Illustrator 30.2.1, SVG Export Plug-In . SVG Version: 2.1.1 Build 1)  -->
  <defs>
    <style>
      .st0 {
        fill: #fff;
      }

      .st0, .st1, .st2 {
        fill-rule: evenodd;
      }

      .st1 {
        fill: #1f244e;
      }

      .st2 {
        fill: #e63483;
      }
    </style>
  </defs>
  <g>
    <polygon class="st1" points="529.96 79.53 667.9 79.53 929.96 234.41 929.96 306.72 529.96 306.72 129.96 306.72 129.96 234.41 392.02 79.53 529.96 79.53"/>
    <path class="st0" d="M536.96,86.68h-5.08l.3-7.15h9.56l.3,7.15h-5.08ZM542.66,101.7h-11.41l.41-9.8h10.59l.41,9.8h0ZM543.49,121.51h-13.06l.5-11.89h12.07l.5,11.89h0ZM544.43,144.03h-14.93l.59-14.18h13.75l.59,14.18h0ZM545.56,171.15h-17.19l.69-16.48h15.82l.69,16.48h0ZM547.12,208.69h-20.32l1.02-24.4h18.29l1.02,24.4h0ZM549.57,267.5h-25.22l1.39-33.37h22.43l1.39,33.37h0ZM552.97,349.26h-32.02l1.9-45.68h28.22l1.9,45.68h0ZM516.29,461.04h41.33l-3.15-75.71h-35.03l-3.15,75.71Z"/>
  </g>
  <g>
    <polygon class="st0" points="18.28 304.8 18.28 366.97 410.77 79.53 379.11 79.53 18.28 304.8"/>
    <g>
      <polygon class="st2" points="398.78 88.3 410.77 79.53 379.11 79.53 365.05 88.3 398.78 88.3"/>
      <polygon class="st2" points="369.39 109.83 384.09 99.07 347.81 99.07 330.57 109.83 369.39 109.83"/>
      <polygon class="st2" points="332.71 136.7 355.29 120.16 314.03 120.16 287.54 136.7 332.71 136.7"/>
      <polygon class="st2" points="280.77 174.73 308.4 154.5 259.03 154.5 226.62 174.73 280.77 174.73"/>
      <polygon class="st2" points="189.31 241.72 232.75 209.9 170.28 209.9 119.32 241.72 189.31 241.72"/>
      <polygon class="st2" points="18.28 304.8 18.28 366.97 114.4 296.58 31.46 296.58 18.28 304.8"/>
    </g>
  </g>
  <g>
    <polygon class="st0" points="1041.13 304.8 1041.13 366.97 650 79.53 681.55 79.53 1041.13 304.8"/>
    <g>
      <polygon class="st2" points="661.95 88.3 650 79.53 681.55 79.53 695.56 88.3 661.95 88.3"/>
      <polygon class="st2" points="691.24 109.83 676.6 99.07 712.74 99.07 729.92 109.83 691.24 109.83"/>
      <polygon class="st2" points="727.79 136.7 705.29 120.16 746.41 120.16 772.8 136.7 727.79 136.7"/>
      <polygon class="st2" points="779.55 174.73 752.01 154.5 801.22 154.5 833.51 174.73 779.55 174.73"/>
      <polygon class="st2" points="870.69 241.72 827.41 209.9 889.65 209.9 940.43 241.72 870.69 241.72"/>
      <polygon class="st2" points="1041.13 304.8 1041.13 366.97 945.34 296.58 1028 296.58 1041.13 304.8"/>
    </g>
  </g>
</svg>