<?xml version="1.0" encoding="UTF-8"?>
<svg xmlns="http://www.w3.org/2000/svg" version="1.1" xmlns:xlink="http://www.w3.org/1999/xlink" viewBox="0 0 117.27 223.58">
  <!-- Generator: Adobe Illustrator 30.2.1, SVG Export Plug-In . SVG Version: 2.1.1 Build 1)  -->
  <defs>
    <style>
      .st0 {
        opacity: .3;
      }

      .st0, .st1 {
        fill: #423d77;
        mix-blend-mode: multiply;
      }

      .st2 {
        fill: #c4bcd1;
      }

      .st3 {
        fill: #fffbd7;
      }

      .st4 {
        fill: url(#_횁책챌청챙첼챠챠청챕_찾챨횪채챔책챠챵_153);
      }

      .st5 {
        isolation: isolate;
      }

      .st6 {
        fill: url(#_횁책챌청챙첼챠챠청챕_찾챨횪채챔책챠챵_154);
      }

      .st7 {
        fill: url(#_횁책챌청챙첼챠챠청챕_찾챨횪채챔책챠챵_155);
      }

      .st1 {
        opacity: .6;
      }

      .st8 {
        fill: url(#_횁책챌청챙첼챠챠청챕_찾챨횪채챔책챠챵_15);
      }

      .st9 {
        fill: #e3d1ac;
        mix-blend-mode: screen;
        opacity: .32;
      }

      .st10 {
        fill: url(#_횁책챌청챙첼챠챠청챕_찾챨횪채챔책챠챵_151);
      }

      .st11 {
        fill: url(#_횁책챌청챙첼챠챠청챕_찾챨횪채챔책챠챵_152);
      }
    </style>
    <linearGradient id="_횁책챌청챙첼챠챠청챕_찾챨횪채챔책챠챵_15" data-name="횁책챌청챙첼챠챠청챕 찾챨횪채챔책챠챵 15" x1="-4381.71" y1="-18.33" x2="-4403.68" y2="32.86" gradientTransform="translate(-4343.31 37.99) rotate(-177.71) scale(1 -1)" gradientUnits="userSpaceOnUse">
      <stop offset="0" stop-color="#83708c"/>
      <stop offset=".4" stop-color="#5f556b"/>
      <stop offset="1" stop-color="#23163e"/>
    </linearGradient>
    <linearGradient id="_횁책챌청챙첼챠챠청챕_찾챨횪채챔책챠챵_151" data-name="횁책챌청챙첼챠챠청챕 찾챨횪채챔책챠챵 15" x1="-4529.75" y1="190.37" x2="-4472.53" y2="140.75" gradientTransform="translate(-4371.23) rotate(-180) scale(1 -1)" xlink:href="#_횁책챌청챙첼챠챠청챕_찾챨횪채챔책챠챵_15"/>
    <linearGradient id="_횁책챌청챙첼챠챠청챕_찾챨횪채챔책챠챵_152" data-name="횁책챌청챙첼챠챠청챕 찾챨횪채챔책챠챵 15" x1="-4495.22" y1="158.34" x2="-4283.55" y2="-18.52" gradientTransform="translate(-4371.23) rotate(-180) scale(1 -1)" xlink:href="#_횁책챌청챙첼챠챠청챕_찾챨횪채챔책챠챵_15"/>
    <linearGradient id="_횁책챌청챙첼챠챠청챕_찾챨횪채챔책챠챵_153" data-name="횁책챌청챙첼챠챠청챕 찾챨횪채챔책챠챵 15" x1="-4378.2" y1="-39.54" x2="-4395.94" y2="-5.62" xlink:href="#_횁책챌청챙첼챠챠청챕_찾챨횪채챔책챠챵_15"/>
    <linearGradient id="_횁책챌청챙첼챠챠청챕_찾챨횪채챔책챠챵_154" data-name="횁책챌청챙첼챠챠청챕 찾챨횪채챔책챠챵 15" x1="-4440.84" y1="143.78" x2="-4392.82" y2="219.81" gradientTransform="translate(-4371.23) rotate(-180) scale(1 -1)" xlink:href="#_횁책챌청챙첼챠챠청챕_찾챨횪채챔책챠챵_15"/>
    <linearGradient id="_횁책챌청챙첼챠챠청챕_찾챨횪채챔책챠챵_155" data-name="횁책챌청챙첼챠챠청챕 찾챨횪채챔책챠챵 15" x1="-4459.41" y1="-1.23" x2="-4466" y2="16.1" gradientTransform="translate(-4371.23) rotate(-180) scale(1 -1)" xlink:href="#_횁책챌청챙첼챠챠청챕_찾챨횪채챔책챠챵_15"/>
  </defs>
  <g class="st5">
    <g id="Camada_1">
      <g>
        <g>
          <polygon class="st8" points="47.24 205.14 61.9 206.87 18.46 206.83 36.68 204.53 47.24 205.14"/>
          <polygon class="st10" points="36.68 204.53 38.75 204.78 39.13 204.82 39.14 204.68 39.14 204.67 39.22 203.9 39.24 203.76 40.25 193.59 40.35 192.66 40.51 191.04 40.53 190.82 40.72 188.94 42.21 174.06 42.24 173.72 42.52 170.91 42.81 168.03 43.04 165.78 44.13 154.87 44.37 152.46 44.8 148.18 45.1 140.46 46.66 101.59 49.08 41.17 49.19 38.61 80.67 19.57 80.77 19.52 90.19 13.82 90.81 13.45 89.78 10.95 60.04 29.69 54.48 33.19 43.26 40.26 38.23 165.85 38.14 168.13 38.02 171.08 37.96 172.71 37.9 174.22 37.4 186.79 37.36 187.7 37.33 188.32 37.29 189.42 37.26 190.3 36.7 204.06 36.7 204.2 36.68 204.53"/>
          <path class="st11" d="M38.75,204.78v.03l5.78.23,1.73.07h0l.58.02.39.02.03-1.52.02-.82v-.29s.05-2.31.05-2.31h0s.04-2.05.04-2.05h0s.07-3.97.07-3.97l.06-3.18.28-15.25.03-1.9v-.16s.06-2.98.06-2.98l.05-2.57v-.23s.04-2.22.04-2.22l.36-19.8.04-2.33.16-9.05.66-36.4,1.03-56.84s.02,0,.04-.02l49.54-20.86-8.98-6.97-.61.36-30.82,18.16-6.01,3.54h0s-8.8,5.18-8.8,5.18l-4.44,125.13-.08,2.27-.1,2.92-.07,2.11-.04,1.03-.5,14.02-.05,1.35-.02.47-.07,1.88v.12s0,0,0,0l-.42,11.83v.14s-.03.7-.03.7v.12Z"/>
          <polygon class="st2" points="96.96 20.31 90.7 16.28 65.16 31.31 67.34 33.29 96.96 20.31"/>
          <polygon class="st4" points="36.8 206.43 36.88 206.84 37.9 211.95 63.59 211.84 61.98 207.09 61.9 206.87 60 206.83 46 206.59 36.8 206.43"/>
          <polygon class="st6" points="17.74 210.57 37.9 211.95 36.8 206.43 18.46 206.83 17.74 210.57"/>
          <polygon class="st7" points="89.78 10.95 90.19 13.81 90.19 13.82 90.22 13.99 99.79 20.42 99.14 17.75 89.78 10.95"/>
          <path class="st1" d="M44.57,40.69l4.51.49,1.13.12s.02,0,.04-.02l49.54-20.86-.65-2.67-9.36-6.8.42,2.86h0s.03.18.03.18l-9.45,5.53-.09.05-21.32,12.47-6.01,3.51h0s-8.77,5.13-8.77,5.13Z"/>
          <polygon class="st1" points="46.8 206.76 36.8 206.43 36.88 206.84 37.9 211.95 63.59 211.84 61.98 207.09 60.24 206.86 60 206.83 47.24 205.14 39.14 204.67 38.76 204.65 36.68 204.53 46 206.59 46.8 206.76"/>
          <path class="st0" d="M40.43,162.18c.25-.17,1.75-3.22,3.7-7.32,1.28-2.71,2.76-5.87,4.18-8.96l.04-2.33c-.53,1.17-2.27,5-3.99,8.88-2.19,4.96-4.35,10-3.94,9.73Z"/>
          <polygon class="st0" points="40.81 147.92 45.1 140.46 45.11 140.46 48.52 134.53 49.18 98.13 49.02 97.13 46.66 101.59 46.66 101.59 42.37 109.74 40.81 147.92"/>
          <polygon class="st9" points="53.28 35.69 59.34 32.07 59.35 32.05 59.35 32.04 59.37 31.97 59.37 31.97 60.04 29.69 54.48 33.19 53.36 35.5 53.36 35.51 53.34 35.56 53.34 35.56 53.28 35.69"/>
        </g>
        <polygon class="st3" points="96.71 19.96 67.01 32.98 64.82 31 90.43 15.92 96.71 19.96"/>
      </g>
    </g>
  </g>
</svg>